<svg xmlns="http://www.w3.org/2000/svg" width="27" height="27" viewBox="0 0 27 27">
  <path id="Icon_awesome-external-link-square-alt" data-name="Icon awesome-external-link-square-alt" d="M27,5.143V26.357a2.893,2.893,0,0,1-2.893,2.893H2.893A2.893,2.893,0,0,1,0,26.357V5.143A2.893,2.893,0,0,1,2.893,2.25H24.107A2.893,2.893,0,0,1,27,5.143Zm-5.3.964H14.948a1.448,1.448,0,0,0-1.023,2.469L15.853,10.5,4.069,22.288a.723.723,0,0,0,0,1.023l1.87,1.87a.723.723,0,0,0,1.023,0L18.746,13.4l1.928,1.928A1.447,1.447,0,0,0,23.143,14.3V7.554A1.446,1.446,0,0,0,21.7,6.107Z" transform="translate(0 -2.25)" fill="#f3c15f"/>
</svg>
